<?xml version="1.0" standalone="no"?>
<!DOCTYPE svg PUBLIC "-//W3C//DTD SVG 20010904//EN"
 "http://www.w3.org/TR/2001/REC-SVG-20010904/DTD/svg10.dtd">
<svg version="1.0" xmlns="http://www.w3.org/2000/svg"
 width="300.000000pt" height="300.000000pt" viewBox="0 0 300.000000 300.000000"
 preserveAspectRatio="xMidYMid meet">
<metadata>
Created by potrace 1.14, written by Peter Selinger 2001-2017
</metadata>
<g transform="translate(0.000000,300.000000) scale(0.100000,-0.100000)"
fill="#000000" stroke="none">
<path d="M1409 2323 c-78 -48 -79 -167 -2 -219 24 -16 52 -19 201 -22 l172 -4
0 -619 0 -619 130 0 130 0 0 225 0 226 43 -29 c68 -46 105 -57 197 -57 172 0
280 73 325 221 38 124 39 466 2 586 -34 111 -105 184 -205 214 -105 32 -257
11 -329 -46 l-28 -22 -6 45 c-9 60 -34 104 -69 122 -45 23 -523 22 -561 -2z
m886 -332 c18 -9 40 -37 55 -66 23 -47 25 -60 25 -205 0 -147 -1 -158 -25
-205 -31 -60 -73 -85 -143 -85 -103 0 -151 51 -168 179 -13 95 2 284 25 329
39 75 147 99 231 53z"/>
<path d="M893 1790 c-44 -27 -65 -63 -65 -111 1 -48 21 -83 65 -109 28 -18 51
-20 200 -20 l167 0 0 -160 c0 -176 8 -211 55 -248 37 -30 106 -30 147 -1 53
38 58 65 58 321 0 261 -5 282 -69 325 -33 22 -41 23 -280 23 -226 0 -249 -2
-278 -20z"/>
<path d="M385 1266 c-98 -44 -111 -172 -23 -226 30 -18 50 -20 206 -20 l172 0
0 -170 c0 -187 6 -212 57 -245 32 -21 98 -24 131 -6 13 7 32 27 42 44 18 29
20 52 20 285 0 288 -2 297 -75 332 -38 18 -62 20 -271 20 -168 -1 -237 -4
-259 -14z"/>
</g>
</svg>
